<?xml version="1.0" standalone="no"?>
<!DOCTYPE svg PUBLIC "-//W3C//DTD SVG 20010904//EN"
        "http://www.w3.org/TR/2001/REC-SVG-20010904/DTD/svg10.dtd">
<svg version="1.0" xmlns="http://www.w3.org/2000/svg"
     width="100" height="100" viewBox="0 0 768.000000 768.000000"
     preserveAspectRatio="xMidYMid meet">

    <g transform="translate(0.000000,768.000000) scale(0.100000,-0.100000)"
       fill="#ed6a2c" stroke="none">
        <path d="M2045 7016 c-456 -76 -841 -325 -1102 -716 -138 -206 -229 -472 -253
-740 -14 -159 -13 -3523 1 -3684 12 -140 52 -303 107 -438 156 -381 511 -706
907 -831 145 -46 224 -58 395 -64 158 -4 238 3 1810 156 966 94 1690 169 1755
181 372 72 740 305 974 616 133 178 215 342 272 542 65 234 63 179 67 1382 2
777 0 1114 -8 1159 -6 36 -23 89 -37 118 -34 73 -122 166 -186 198 -78 37
-710 215 -718 201 -4 -6 -212 -447 -464 -981 -252 -533 -461 -974 -465 -979
-5 -4 -15 5 -23 20 -8 16 -229 585 -492 1265 l-477 1236 -519 148 c-356 101
-540 149 -586 152 -226 16 -445 -138 -516 -362 l-22 -70 0 -1565 c0 -1498 1
-1568 19 -1633 56 -203 245 -347 456 -347 72 0 381 26 428 36 l22 4 0 1561 c0
1244 3 1560 12 1557 7 -3 103 -238 214 -524 110 -285 371 -960 579 -1499 208
-539 379 -981 379 -981 2 -3 878 84 881 88 2 1 246 518 543 1148 297 629 545
1146 551 1148 9 3 11 -223 8 -920 -4 -995 -2 -955 -57 -1133 -34 -107 -74
-189 -147 -299 -174 -262 -450 -450 -748 -510 -133 -27 -2842 -289 -2980 -288
-95 0 -140 5 -216 25 -330 86 -580 345 -653 677 -15 68 -16 236 -14 1895 l3
1820 28 88 c108 344 370 594 714 679 109 27 321 30 423 6 36 -8 819 -231 1740
-494 1335 -381 1687 -478 1732 -478 64 0 97 18 136 74 45 67 19 186 -50 228
-18 11 -841 250 -1828 532 -987 281 -1820 520 -1850 531 -144 51 -267 71 -470
75 -132 2 -221 -1 -275 -10z"/>
    </g>
</svg>
